<svg width="20" height="20" viewBox="0 0 20 20" fill="none" xmlns="http://www.w3.org/2000/svg">
<path d="M1.8282 17.0798C1.2 16.719 0.872956 16.013 0.956421 15.2934C1.27316 12.5625 2.23562 5.68569 4.23766 1.91472C4.60246 1.2276 5.39439 0.930961 6.15724 1.08355L8.02988 1.45813C9.07808 1.6678 9.7092 2.74441 9.3801 3.76146L9.24376 4.18278C9.08636 4.66923 8.63335 4.99877 8.12207 4.99877C7.47096 4.99877 6.94312 5.52661 6.94312 6.17773V11.6304C6.94312 11.9951 7.23877 12.2908 7.60347 12.2908C7.82676 12.2908 8.0332 12.1766 8.1642 11.9958C10.267 9.09328 14.2955 8.06015 16.7595 9.16418C20.1199 10.7224 19.8144 15.4174 16.7595 17.495C14.4469 19.0755 7.7212 20.4644 1.8282 17.0798Z" fill="white"/>
</svg>
