<svg width="26" height="26" viewBox="0 0 26 26" fill="none" xmlns="http://www.w3.org/2000/svg">
<path d="M8.53935 9.40225C8.53712 9.45473 8.54566 9.50711 8.56442 9.55616C8.58319 9.60522 8.61179 9.64992 8.64847 9.68752C8.68516 9.72511 8.72914 9.75481 8.77772 9.77477C8.8263 9.79474 8.87845 9.80456 8.93097 9.80363H10.2716C10.4958 9.80363 10.6746 9.62 10.7038 9.39738C10.8501 8.33138 11.5813 7.55463 12.8846 7.55463C13.9993 7.55463 15.0198 8.112 15.0198 9.45263C15.0198 10.4845 14.4121 10.959 13.4517 11.6805C12.3581 12.4751 11.492 13.403 11.5537 14.9094L11.5586 15.262C11.5603 15.3686 11.6039 15.4703 11.6799 15.5451C11.7559 15.6199 11.8582 15.6618 11.9648 15.6617H13.2827C13.3905 15.6617 13.4938 15.6189 13.57 15.5428C13.6462 15.4666 13.689 15.3632 13.689 15.2555V15.0849C13.689 13.9181 14.1326 13.5785 15.3302 12.6701C16.3198 11.9178 17.3517 11.0825 17.3517 9.32913C17.3517 6.87375 15.2782 5.6875 13.0081 5.6875C10.9492 5.6875 8.69372 6.64625 8.53935 9.40225ZM11.0695 18.7671C11.0695 19.6333 11.7601 20.2735 12.7107 20.2735C13.7003 20.2735 14.3812 19.6333 14.3812 18.7671C14.3812 17.8701 13.6987 17.2396 12.7091 17.2396C11.7601 17.2396 11.0695 17.8701 11.0695 18.7671Z" fill="white"/>
</svg>
